<?xml version="1.0" encoding="utf-8"?>
<!-- Generator: Adobe Illustrator 23.0.0, SVG Export Plug-In . SVG Version: 6.00 Build 0)  -->
<svg version="1.1" id="Layer_1" xmlns="http://www.w3.org/2000/svg" xmlns:xlink="http://www.w3.org/1999/xlink" x="0px" y="0px"
	 viewBox="0 0 310 154" style="enable-background:new 0 0 310 154;" xml:space="preserve">
<style type="text/css">
	.st0{fill:#008D45;}
	.st1{fill:#00AEEF;}
</style>
<g>
	<g>
		<path class="st0" d="M165.74,120.45v-0.52c0-0.35,0.03-0.66,0.09-0.94s0.14-0.54,0.26-0.77s0.26-0.45,0.44-0.66
			s0.38-0.41,0.61-0.62s0.5-0.42,0.79-0.63s0.62-0.45,0.96-0.71c0.34-0.25,0.66-0.49,0.95-0.73s0.55-0.5,0.77-0.77
			s0.39-0.58,0.52-0.91s0.19-0.71,0.19-1.14c0-0.74-0.2-1.31-0.61-1.72s-0.98-0.61-1.72-0.61c-0.5,0-0.98,0.11-1.45,0.33
			s-0.92,0.52-1.36,0.91v-0.84c0.43-0.33,0.89-0.59,1.38-0.77s1.01-0.28,1.55-0.28c0.45,0,0.85,0.07,1.22,0.2s0.68,0.33,0.93,0.58
			s0.46,0.55,0.6,0.91s0.21,0.75,0.21,1.19c0,0.52-0.07,0.97-0.22,1.37s-0.35,0.76-0.61,1.09s-0.55,0.63-0.89,0.9
			s-0.7,0.55-1.08,0.82c-0.5,0.36-0.93,0.68-1.28,0.96s-0.63,0.55-0.85,0.82s-0.38,0.54-0.47,0.82s-0.14,0.61-0.14,0.98v0.12h5.57
			v0.66H165.74z"/>
		<path class="st0" d="M179.21,109.25v7.63h1.75v0.65h-1.75v2.93h-0.72v-2.93h-5.34v-0.7c0.5-0.57,1.01-1.18,1.52-1.83
			s1.01-1.31,1.48-1.98s0.91-1.32,1.3-1.97s0.73-1.24,0.99-1.79H179.21z M173.97,116.88h4.52v-6.34c-0.38,0.66-0.77,1.29-1.18,1.91
			s-0.81,1.19-1.21,1.74s-0.78,1.05-1.14,1.5S174.26,116.54,173.97,116.88z"/>
		<path class="st0" d="M193.3,120.45v-5.38h-6.41v5.38h-0.77v-11.2h0.77v5.13h6.41v-5.13h0.77v11.2H193.3z"/>
		<path class="st0" d="M199.51,120.65c-1.17,0-2.09-0.38-2.77-1.15s-1.02-1.77-1.02-3c0-1.33,0.36-2.37,1.07-3.12
			s1.65-1.13,2.81-1.13c1.14,0,2.04,0.37,2.7,1.12s0.99,1.78,0.99,3.09c0,1.25-0.34,2.25-1.01,3.02S200.68,120.65,199.51,120.65z
			 M199.57,112.92c-0.94,0-1.69,0.32-2.25,0.95s-0.84,1.52-0.84,2.65c0,1.05,0.27,1.89,0.82,2.52s1.29,0.95,2.24,0.95
			c0.96,0,1.71-0.31,2.23-0.94s0.78-1.49,0.78-2.6c0-1.14-0.26-2.02-0.78-2.63S200.51,112.92,199.57,112.92z"/>
		<path class="st0" d="M210.08,120.45V119h-0.03c-0.56,1.1-1.42,1.65-2.58,1.65c-1.89,0-2.84-1.19-2.84-3.57v-4.63h0.73v4.45
			c0,1.08,0.18,1.87,0.54,2.36s0.92,0.73,1.68,0.73c0.75,0,1.35-0.27,1.81-0.82s0.69-1.28,0.69-2.19v-4.53h0.72v8H210.08z"/>
		<path class="st0" d="M216.65,113.2c-0.24-0.17-0.52-0.26-0.84-0.26c-0.63,0-1.16,0.33-1.59,0.98s-0.64,1.58-0.64,2.77v3.76h-0.7
			v-8h0.7v1.77h0.03c0.18-0.61,0.47-1.08,0.87-1.42s0.85-0.51,1.38-0.51c0.3,0,0.56,0.05,0.8,0.14V113.2z"/>
		<path class="st0" d="M221.39,120.06v-0.88c0.8,0.51,1.61,0.77,2.44,0.77c0.88,0,1.54-0.18,1.99-0.54s0.68-0.87,0.68-1.52
			c0-0.57-0.15-1.03-0.46-1.37s-0.96-0.81-1.98-1.39c-1.14-0.66-1.85-1.21-2.16-1.66s-0.45-0.96-0.45-1.54
			c0-0.79,0.31-1.46,0.92-2.02s1.43-0.83,2.46-0.83c0.67,0,1.33,0.11,2,0.34v0.81c-0.66-0.3-1.36-0.45-2.1-0.45
			c-0.76,0-1.36,0.19-1.81,0.58s-0.67,0.88-0.67,1.47c0,0.57,0.15,1.03,0.46,1.37s0.96,0.8,1.97,1.38c1.05,0.59,1.74,1.12,2.09,1.58
			s0.52,0.99,0.52,1.59c0,0.86-0.3,1.56-0.89,2.1s-1.44,0.81-2.53,0.81c-0.39,0-0.83-0.06-1.33-0.18S221.65,120.21,221.39,120.06z"
			/>
		<path class="st0" d="M229.23,116.49c0,1.1,0.25,1.96,0.76,2.58s1.2,0.93,2.09,0.93c0.9,0,1.77-0.33,2.63-0.99v0.77
			c-0.83,0.59-1.75,0.88-2.77,0.88c-1.03,0-1.86-0.37-2.5-1.11s-0.95-1.78-0.95-3.13c0-1.17,0.33-2.15,1-2.95s1.53-1.2,2.59-1.2
			c1,0,1.76,0.35,2.29,1.05s0.8,1.65,0.8,2.86v0.32H229.23z M234.4,115.83c-0.03-0.92-0.25-1.64-0.66-2.15s-0.98-0.77-1.7-0.77
			c-0.75,0-1.37,0.25-1.86,0.75s-0.8,1.22-0.91,2.16H234.4z"/>
		<path class="st0" d="M240.43,113.2c-0.24-0.17-0.52-0.26-0.84-0.26c-0.63,0-1.16,0.33-1.59,0.98s-0.64,1.58-0.64,2.77v3.76h-0.7
			v-8h0.7v1.77h0.03c0.18-0.61,0.47-1.08,0.87-1.42s0.85-0.51,1.38-0.51c0.3,0,0.56,0.05,0.8,0.14V113.2z"/>
		<path class="st0" d="M244.08,120.45h-0.66l-3.09-8h0.8l2.38,6.37c0.11,0.31,0.2,0.59,0.24,0.84h0.03c0.07-0.33,0.14-0.6,0.23-0.8
			l2.46-6.4h0.78L244.08,120.45z"/>
		<path class="st0" d="M248.58,110.44c-0.16,0-0.29-0.06-0.41-0.17s-0.18-0.26-0.18-0.44c0-0.17,0.06-0.31,0.18-0.42
			s0.26-0.16,0.41-0.16c0.16,0,0.3,0.05,0.43,0.16s0.18,0.25,0.18,0.42c0,0.17-0.06,0.31-0.18,0.43S248.75,110.44,248.58,110.44z
			 M248.23,120.45v-8h0.72v8H248.23z"/>
		<path class="st0" d="M256.21,120.1c-0.59,0.36-1.3,0.55-2.13,0.55c-1.09,0-1.97-0.37-2.63-1.12s-1-1.73-1-2.93
			c0-1.27,0.38-2.31,1.13-3.12s1.71-1.21,2.89-1.21c0.61,0,1.2,0.13,1.77,0.38v0.81c-0.57-0.35-1.2-0.53-1.88-0.53
			c-0.94,0-1.7,0.34-2.28,1.01s-0.88,1.55-0.88,2.62c0,1.04,0.27,1.87,0.8,2.5s1.24,0.95,2.11,0.95c0.8,0,1.5-0.21,2.09-0.64V120.1z
			"/>
		<path class="st0" d="M257.82,116.49c0,1.1,0.25,1.96,0.76,2.58s1.2,0.93,2.09,0.93c0.9,0,1.77-0.33,2.63-0.99v0.77
			c-0.83,0.59-1.75,0.88-2.77,0.88c-1.03,0-1.86-0.37-2.5-1.11s-0.95-1.78-0.95-3.13c0-1.17,0.33-2.15,1-2.95s1.53-1.2,2.59-1.2
			c1,0,1.76,0.35,2.29,1.05s0.8,1.65,0.8,2.86v0.32H257.82z M262.99,115.83c-0.03-0.92-0.25-1.64-0.66-2.15s-0.98-0.77-1.7-0.77
			c-0.75,0-1.37,0.25-1.86,0.75s-0.8,1.22-0.91,2.16H262.99z"/>
	</g>
	<g>
		<path class="st1" d="M135.37,65.56c-1.59-0.8-2.88-1.21-3.88-1.21c-0.98,0-1.46,0.5-1.46,1.5c0,0.77,0.31,1.37,0.94,1.79
			c0.62,0.42,1.62,0.89,2.98,1.4c1.7,0.68,3.11,1.35,4.24,2.03c1.12,0.68,2.11,1.75,2.95,3.21c0.84,1.47,1.26,3.39,1.26,5.77
			c0,2.45-0.45,4.5-1.35,6.16c-0.9,1.66-2.11,2.89-3.63,3.7c-1.52,0.8-3.21,1.21-5.07,1.21c-2.11,0-4.24-0.49-6.38-1.47
			s-4-2.33-5.56-4.03l2.93-8.45c1.2,1.48,2.71,2.75,4.53,3.79c1.81,1.05,3.34,1.57,4.56,1.57c0.59,0,1.06-0.15,1.4-0.46
			c0.34-0.31,0.51-0.78,0.51-1.43c0-0.77-0.32-1.38-0.97-1.81s-1.66-0.89-3.05-1.38c-1.68-0.61-3.08-1.25-4.2-1.91
			c-1.12-0.66-2.09-1.68-2.91-3.07c-0.82-1.38-1.23-3.24-1.23-5.56c0-2.25,0.42-4.23,1.26-5.92s2.03-2.99,3.57-3.89
			c1.54-0.9,3.34-1.35,5.38-1.35c1.86,0,3.72,0.37,5.57,1.11c1.85,0.74,3.46,1.72,4.82,2.95l-2.86,8.55
			C138.4,67.3,136.96,66.36,135.37,65.56z"/>
		<path class="st1" d="M162.44,58.98c1.7,2.15,2.55,5.2,2.55,9.15c0,4.18-0.85,7.42-2.55,9.74c-1.7,2.32-4.11,3.48-7.22,3.48h-3.3
			v8.98h-7.9V55.75h11.2C158.33,55.75,160.74,56.83,162.44,58.98z M156.81,71.56c0.46-0.74,0.7-1.77,0.7-3.08
			c0-1.28-0.23-2.28-0.7-2.98c-0.47-0.71-1.13-1.06-1.99-1.06h-2.89v8.24h2.89C155.68,72.67,156.34,72.3,156.81,71.56z"/>
		<path class="st1" d="M180.52,90.33l-1.19-4.88h-8.95l-1.23,4.88h-8.1l10.08-34.58h8.1l9.7,34.58H180.52z M172.42,77.26h4.97
			l-2.45-10.11L172.42,77.26z"/>
		<path class="st1" d="M203.38,90.33l-2.86-8.98h-2.96v8.98h-7.9V55.75h11.54c3.25,0,5.75,1.08,7.52,3.23
			c1.77,2.15,2.66,5.2,2.66,9.15c0,2.5-0.32,4.68-0.97,6.54c-0.65,1.86-1.58,3.33-2.81,4.42l4.7,11.25H203.38z M197.56,72.67h3.64
			c0.86,0,1.53-0.37,1.99-1.11c0.46-0.74,0.7-1.77,0.7-3.08c0-1.28-0.23-2.28-0.7-2.98c-0.46-0.71-1.13-1.06-1.99-1.06h-3.64V72.67z
			"/>
		<path class="st1" d="M238.8,90.33h-9.43l-5.04-12.04l-2.25,3.65v8.39h-7.9V55.75h7.9v12.63l7.11-12.63h9.09l-8.54,13.81
			L238.8,90.33z"/>
		<path class="st0" d="M252.15,66.35c-0.99-0.85-1.95-1.28-2.88-1.28s-1.78,0.35-2.54,1.04c-0.76,0.69-1.35,1.65-1.77,2.87
			c-0.42,1.22-0.63,2.61-0.63,4.15c0,1.55,0.21,2.94,0.63,4.18c0.42,1.24,1.01,2.21,1.77,2.92c0.76,0.71,1.61,1.06,2.54,1.06
			c0.86,0,1.79-0.36,2.77-1.09c0.99-0.72,1.87-1.68,2.64-2.87l4.56,6.91c-1.34,2.09-2.94,3.76-4.82,5
			c-1.87,1.24-3.73,1.86-5.56,1.86c-2.41,0-4.57-0.77-6.48-2.29c-1.92-1.53-3.42-3.66-4.51-6.38c-1.09-2.72-1.63-5.77-1.63-9.15
			c0-3.35,0.56-6.35,1.67-9.01c1.11-2.66,2.65-4.74,4.61-6.26c1.96-1.51,4.18-2.27,6.65-2.27c1.82,0,3.64,0.57,5.48,1.71
			c1.84,1.14,3.37,2.67,4.59,4.56l-4.56,7.68C253.98,68.33,253.13,67.21,252.15,66.35z"/>
		<path class="st0" d="M277.68,90.33l-1.19-4.88h-8.95l-1.23,4.88h-8.1l10.08-34.58h8.1l9.7,34.58H277.68z M269.58,77.26h4.97
			l-2.45-10.11L269.58,77.26z"/>
		<path class="st0" d="M300.74,90.33l-2.86-8.98h-2.96v8.98h-7.9V55.75h11.54c3.25,0,5.75,1.08,7.52,3.23
			c1.77,2.15,2.66,5.2,2.66,9.15c0,2.5-0.32,4.68-0.97,6.54c-0.65,1.86-1.58,3.33-2.81,4.42l4.7,11.25H300.74z M294.92,72.67h3.64
			c0.86,0,1.53-0.37,1.99-1.11c0.46-0.74,0.7-1.77,0.7-3.08c0-1.28-0.23-2.28-0.7-2.98c-0.46-0.71-1.13-1.06-1.99-1.06h-3.64V72.67z
			"/>
	</g>
	<g>
		<path class="st0" d="M15.94,152.34l-0.5-1.18h-2.74l-0.5,1.18H11.1l2.46-5.6h1.11l2.42,5.6H15.94z M13.09,150.24h1.97l-0.98-2.35
			L13.09,150.24z"/>
		<path class="st0" d="M22.37,147.78c-0.3-0.1-0.57-0.14-0.8-0.14c-0.26,0-0.46,0.05-0.61,0.14c-0.15,0.1-0.22,0.23-0.22,0.4
			c0,0.15,0.05,0.28,0.16,0.39c0.1,0.1,0.24,0.19,0.39,0.26c0.16,0.07,0.37,0.14,0.64,0.22c0.38,0.11,0.69,0.22,0.93,0.34
			c0.24,0.11,0.45,0.28,0.62,0.5c0.17,0.22,0.26,0.51,0.26,0.86c0,0.34-0.09,0.64-0.28,0.89c-0.18,0.25-0.44,0.45-0.76,0.58
			c-0.32,0.13-0.69,0.2-1.11,0.2c-0.44,0-0.86-0.08-1.28-0.24c-0.42-0.16-0.78-0.38-1.09-0.65l0.45-0.91
			c0.28,0.26,0.6,0.47,0.95,0.62s0.68,0.22,0.98,0.22c0.3,0,0.53-0.06,0.7-0.17c0.17-0.11,0.26-0.27,0.26-0.47
			c0-0.16-0.05-0.29-0.16-0.4c-0.1-0.1-0.24-0.19-0.4-0.25c-0.16-0.06-0.38-0.14-0.66-0.22c-0.38-0.11-0.69-0.22-0.93-0.33
			c-0.24-0.11-0.45-0.27-0.62-0.48c-0.17-0.22-0.26-0.5-0.26-0.85c0-0.33,0.09-0.61,0.26-0.85c0.17-0.24,0.42-0.43,0.74-0.56
			c0.32-0.13,0.68-0.2,1.1-0.2c0.36,0,0.72,0.05,1.08,0.16c0.35,0.11,0.67,0.25,0.95,0.43l-0.43,0.94
			C22.96,148.01,22.67,147.87,22.37,147.78z"/>
		<path class="st0" d="M28.29,148.31c0.31,0.18,0.54,0.44,0.71,0.77c0.17,0.33,0.25,0.71,0.25,1.14c0,0.43-0.08,0.8-0.25,1.13
			c-0.17,0.33-0.4,0.58-0.7,0.76c-0.3,0.18-0.66,0.27-1.06,0.27c-0.32,0-0.6-0.06-0.85-0.19c-0.25-0.13-0.45-0.31-0.61-0.55v2.25
			h-1.04v-5.83h1.04v0.7c0.16-0.24,0.35-0.42,0.6-0.55c0.24-0.13,0.52-0.19,0.84-0.19C27.63,148.03,27.99,148.13,28.29,148.31z
			 M27.87,151.13c0.22-0.24,0.34-0.55,0.34-0.93c0-0.38-0.11-0.69-0.34-0.93c-0.22-0.24-0.51-0.36-0.86-0.36
			c-0.36,0-0.65,0.12-0.87,0.36c-0.22,0.24-0.34,0.55-0.34,0.93c0,0.38,0.11,0.7,0.34,0.94c0.22,0.24,0.51,0.36,0.87,0.36
			C27.35,151.49,27.64,151.37,27.87,151.13z"/>
		<path class="st0" d="M32.69,152.34v-0.52c-0.15,0.19-0.34,0.33-0.58,0.42c-0.23,0.1-0.5,0.14-0.81,0.14
			c-0.3,0-0.56-0.06-0.79-0.17c-0.23-0.11-0.4-0.27-0.52-0.48c-0.12-0.2-0.18-0.43-0.18-0.68c0-0.4,0.14-0.71,0.42-0.94
			c0.28-0.23,0.68-0.34,1.2-0.35h1.25v-0.11c0-0.25-0.08-0.45-0.25-0.58s-0.41-0.21-0.72-0.21c-0.41,0-0.83,0.13-1.27,0.4
			l-0.38-0.72c0.34-0.19,0.64-0.32,0.92-0.4c0.27-0.08,0.6-0.12,0.96-0.12c0.55,0,0.99,0.13,1.29,0.4s0.46,0.64,0.47,1.12l0.01,2.8
			H32.69z M32.32,151.38c0.21-0.14,0.33-0.32,0.36-0.52v-0.38H31.6c-0.28,0-0.48,0.04-0.61,0.12c-0.13,0.08-0.2,0.22-0.2,0.4
			c0,0.18,0.07,0.33,0.2,0.43c0.14,0.11,0.32,0.16,0.56,0.16C31.85,151.59,32.11,151.52,32.32,151.38z"/>
		<path class="st0" d="M36.51,148.25c0.25-0.15,0.54-0.22,0.87-0.23v1.01c-0.44-0.03-0.8,0.08-1.06,0.31
			c-0.26,0.23-0.4,0.54-0.4,0.94v2.06h-1.04v-4.28h1.04v0.82C36.07,148.61,36.26,148.4,36.51,148.25z"/>
		<path class="st0" d="M41,152.34l-1.16-1.87l-0.66,0.69v1.18h-1.04v-5.94h1.04v3.44l1.76-1.78h1.2l-1.58,1.65l1.68,2.62H41z"/>
		<path class="st0" d="M48.75,149.56h0.94v2.13c-0.29,0.22-0.64,0.4-1.04,0.53c-0.4,0.14-0.79,0.2-1.18,0.2
			c-0.55,0-1.05-0.13-1.5-0.38c-0.45-0.26-0.81-0.6-1.07-1.04c-0.26-0.44-0.39-0.93-0.39-1.46s0.13-1.02,0.4-1.45
			c0.27-0.43,0.63-0.78,1.09-1.03c0.46-0.25,0.97-0.38,1.53-0.38c0.4,0,0.79,0.07,1.18,0.22c0.39,0.14,0.73,0.34,1.01,0.59
			l-0.61,0.79c-0.21-0.2-0.46-0.36-0.74-0.47s-0.56-0.17-0.84-0.17c-0.35,0-0.68,0.08-0.97,0.25s-0.53,0.4-0.7,0.69
			c-0.17,0.29-0.26,0.61-0.26,0.96c0,0.35,0.09,0.67,0.26,0.97c0.17,0.29,0.41,0.53,0.7,0.7c0.29,0.17,0.62,0.26,0.98,0.26
			c0.19,0,0.39-0.03,0.6-0.09c0.21-0.06,0.41-0.15,0.6-0.26V149.56z"/>
		<path class="st0" d="M52.51,148.25c0.25-0.15,0.54-0.22,0.87-0.23v1.01c-0.44-0.03-0.8,0.08-1.06,0.31
			c-0.26,0.23-0.4,0.54-0.4,0.94v2.06h-1.04v-4.28h1.04v0.82C52.07,148.61,52.26,148.4,52.51,148.25z"/>
		<path class="st0" d="M57.15,148.3c0.34,0.18,0.6,0.44,0.79,0.76c0.19,0.33,0.28,0.71,0.28,1.13c0,0.43-0.09,0.81-0.28,1.14
			c-0.19,0.33-0.45,0.59-0.79,0.77c-0.34,0.18-0.73,0.27-1.17,0.27c-0.45,0-0.84-0.09-1.18-0.27c-0.34-0.18-0.61-0.44-0.8-0.77
			s-0.28-0.71-0.28-1.14c0-0.43,0.09-0.8,0.28-1.13c0.19-0.33,0.45-0.58,0.8-0.76s0.74-0.27,1.18-0.27
			C56.42,148.03,56.81,148.12,57.15,148.3z M55.1,149.28c-0.22,0.24-0.34,0.55-0.34,0.94s0.11,0.7,0.34,0.94
			c0.22,0.24,0.52,0.36,0.88,0.36c0.35,0,0.64-0.12,0.86-0.36c0.22-0.24,0.34-0.55,0.34-0.94s-0.11-0.7-0.34-0.94
			c-0.22-0.24-0.51-0.36-0.86-0.36C55.61,148.92,55.32,149.04,55.1,149.28z"/>
		<path class="st0" d="M63.08,148.06v4.28h-1.05v-0.79c-0.29,0.55-0.78,0.83-1.49,0.83c-0.48,0-0.86-0.15-1.14-0.44
			c-0.28-0.29-0.42-0.69-0.42-1.2v-2.68h1.05v2.38c0,0.3,0.08,0.53,0.24,0.7c0.16,0.17,0.39,0.26,0.68,0.26
			c0.33,0,0.59-0.12,0.78-0.35c0.19-0.23,0.29-0.52,0.29-0.87v-2.11H63.08z"/>
		<path class="st0" d="M67.96,148.31c0.31,0.18,0.54,0.44,0.71,0.77c0.17,0.33,0.25,0.71,0.25,1.14c0,0.43-0.08,0.8-0.25,1.13
			c-0.17,0.33-0.4,0.58-0.7,0.76c-0.3,0.18-0.66,0.27-1.06,0.27c-0.32,0-0.6-0.06-0.85-0.19c-0.25-0.13-0.45-0.31-0.61-0.55v2.25
			h-1.04v-5.83h1.04v0.7c0.16-0.24,0.35-0.42,0.6-0.55c0.24-0.13,0.52-0.19,0.84-0.19C67.3,148.03,67.65,148.13,67.96,148.31z
			 M67.53,151.13c0.22-0.24,0.34-0.55,0.34-0.93c0-0.38-0.11-0.69-0.34-0.93c-0.22-0.24-0.51-0.36-0.86-0.36
			c-0.36,0-0.65,0.12-0.87,0.36c-0.22,0.24-0.34,0.55-0.34,0.93c0,0.38,0.11,0.7,0.34,0.94c0.22,0.24,0.51,0.36,0.87,0.36
			C67.02,151.49,67.31,151.37,67.53,151.13z"/>
		<path class="st0" d="M74.46,147.78c-0.3-0.1-0.57-0.14-0.8-0.14c-0.26,0-0.46,0.05-0.61,0.14c-0.15,0.1-0.22,0.23-0.22,0.4
			c0,0.15,0.05,0.28,0.16,0.39c0.1,0.1,0.24,0.19,0.39,0.26c0.16,0.07,0.37,0.14,0.64,0.22c0.38,0.11,0.69,0.22,0.93,0.34
			c0.24,0.11,0.45,0.28,0.62,0.5c0.17,0.22,0.26,0.51,0.26,0.86c0,0.34-0.09,0.64-0.28,0.89c-0.18,0.25-0.44,0.45-0.76,0.58
			c-0.32,0.13-0.69,0.2-1.11,0.2c-0.44,0-0.86-0.08-1.28-0.24c-0.42-0.16-0.78-0.38-1.09-0.65l0.45-0.91
			c0.28,0.26,0.6,0.47,0.95,0.62s0.68,0.22,0.98,0.22c0.3,0,0.53-0.06,0.7-0.17c0.17-0.11,0.26-0.27,0.26-0.47
			c0-0.16-0.05-0.29-0.16-0.4c-0.1-0.1-0.24-0.19-0.4-0.25c-0.16-0.06-0.38-0.14-0.66-0.22c-0.38-0.11-0.69-0.22-0.93-0.33
			c-0.24-0.11-0.45-0.27-0.62-0.48c-0.17-0.22-0.26-0.5-0.26-0.85c0-0.33,0.09-0.61,0.26-0.85c0.17-0.24,0.42-0.43,0.74-0.56
			c0.32-0.13,0.68-0.2,1.1-0.2c0.36,0,0.72,0.05,1.08,0.16c0.35,0.11,0.67,0.25,0.95,0.43l-0.43,0.94
			C75.06,148.01,74.76,147.87,74.46,147.78z"/>
		<path class="st0" d="M80.13,148.62c0.34,0.39,0.52,0.94,0.52,1.64c0,0.14,0,0.24-0.01,0.31h-3.16c0.07,0.3,0.21,0.54,0.43,0.72
			c0.22,0.17,0.48,0.26,0.8,0.26c0.22,0,0.43-0.04,0.63-0.12s0.38-0.2,0.52-0.36l0.56,0.58c-0.21,0.24-0.47,0.42-0.78,0.54
			s-0.65,0.19-1.02,0.19c-0.44,0-0.82-0.09-1.16-0.27c-0.33-0.18-0.59-0.44-0.77-0.76c-0.18-0.33-0.27-0.71-0.27-1.13
			s0.09-0.81,0.28-1.14c0.18-0.33,0.44-0.59,0.77-0.77c0.33-0.18,0.71-0.28,1.13-0.28C79.28,148.03,79.79,148.23,80.13,148.62z
			 M79.7,149.87c-0.01-0.32-0.12-0.57-0.31-0.75s-0.46-0.28-0.78-0.28c-0.3,0-0.56,0.09-0.76,0.28c-0.21,0.18-0.33,0.44-0.38,0.76
			H79.7z"/>
		<path class="st0" d="M83.17,148.25c0.25-0.15,0.54-0.22,0.87-0.23v1.01c-0.44-0.03-0.8,0.08-1.06,0.31
			c-0.26,0.23-0.4,0.54-0.4,0.94v2.06h-1.04v-4.28h1.04v0.82C82.73,148.61,82.92,148.4,83.17,148.25z"/>
		<path class="st0" d="M84.31,148.07l1.09-0.01l1.12,3.26l1.1-3.26h1.05l-1.63,4.28h-1.07L84.31,148.07z"/>
		<path class="st0" d="M90.2,146.4c0.11,0.12,0.17,0.27,0.17,0.45c0,0.18-0.06,0.32-0.17,0.44s-0.25,0.18-0.42,0.18
			s-0.31-0.06-0.42-0.18c-0.11-0.12-0.17-0.26-0.17-0.44c0-0.18,0.06-0.33,0.17-0.45c0.11-0.12,0.25-0.18,0.42-0.18
			S90.09,146.28,90.2,146.4z M89.26,148.06h1.04v4.28h-1.04V148.06z"/>
		<path class="st0" d="M93.42,148.94c-0.35,0-0.63,0.12-0.84,0.35s-0.32,0.54-0.32,0.91c0,0.38,0.11,0.69,0.32,0.93
			s0.5,0.35,0.84,0.35c0.51,0,0.9-0.17,1.15-0.5l0.65,0.54c-0.19,0.28-0.45,0.49-0.76,0.64s-0.68,0.22-1.1,0.22
			c-0.42,0-0.8-0.09-1.12-0.27c-0.33-0.18-0.58-0.44-0.76-0.76c-0.18-0.33-0.27-0.71-0.27-1.13c0-0.43,0.09-0.81,0.28-1.14
			c0.18-0.33,0.44-0.59,0.77-0.77s0.71-0.27,1.13-0.27c0.39,0,0.74,0.07,1.04,0.2c0.31,0.14,0.56,0.33,0.75,0.58l-0.63,0.6
			C94.25,149.1,93.88,148.94,93.42,148.94z"/>
		<path class="st0" d="M99.28,148.62c0.34,0.39,0.52,0.94,0.52,1.64c0,0.14,0,0.24-0.01,0.31h-3.16c0.07,0.3,0.21,0.54,0.43,0.72
			c0.22,0.17,0.48,0.26,0.8,0.26c0.22,0,0.43-0.04,0.63-0.12s0.38-0.2,0.52-0.36l0.56,0.58c-0.21,0.24-0.47,0.42-0.78,0.54
			s-0.65,0.19-1.02,0.19c-0.44,0-0.82-0.09-1.16-0.27c-0.33-0.18-0.59-0.44-0.77-0.76c-0.18-0.33-0.27-0.71-0.27-1.13
			s0.09-0.81,0.28-1.14c0.18-0.33,0.44-0.59,0.77-0.77c0.33-0.18,0.71-0.28,1.13-0.28C98.42,148.03,98.93,148.23,99.28,148.62z
			 M98.84,149.87c-0.01-0.32-0.12-0.57-0.31-0.75s-0.46-0.28-0.78-0.28c-0.3,0-0.56,0.09-0.76,0.28c-0.21,0.18-0.33,0.44-0.38,0.76
			H98.84z"/>
	</g>
	<path class="st1" d="M62.13,123.32c-0.93,0-1.89-0.11-2.86-0.34c-2.39-0.55-4.32-2.01-6.1-3.47c-3.31-2.71-6.85-5.62-10.39-8.55
		c-6.69-5.8-15.74-14.33-16.75-15.29c-1.35-1.36-2.7-2.73-4.05-4.1c-1.86-1.89-3.72-3.78-5.6-5.65c-1.55-1.54-2.13-3.33-1.77-5.45
		c0.19-1.13,1.05-1.93,1.92-2.65l9.71-8.05l22.47-18.6l-0.01,0c2.55-2.11,5.1-4.22,7.65-6.34l2.27-1.88
		c5.65-4.68,11.3-9.37,16.96-14.04c0.46-0.38,0.76-0.79,0.71-1.56c-0.18-2.89-0.32-5.82-0.46-8.66L75.73,16c0-0.06,0-0.12,0-0.19
		c0.07,0.02,0.13,0.04,0.17,0.07c4.62,3.31,8.93,7.45,12.81,12.3c1.39,1.73,2.59,3.49,3.56,5.23c0.69,1.22,1.28,3.08,0.23,4.97
		c-0.27,0.49-0.69,0.98-1.18,1.38c-8.16,6.65-16.33,13.28-24.5,19.91l-8.5,6.9L42.49,79.21l-0.02,0.14
		c-0.23,1.99-0.05,3.76,0.56,5.56l0.02,0.07l11.87,13.29c0.65,0.57,1.63,1.33,2.25,1.66c1.44,0.77,2.73,1.43,3.94,2.01
		c0.46,0.22,0.94,0.33,1.41,0.33c0.81,0,1.63-0.31,2.58-0.97c2.74-1.89,5.49-3.77,8.23-5.65l1.17-0.8c3.28-2.24,6.55-4.48,9.83-6.72
		c1.78-1.21,2.21-3.14,1.11-5.02c-0.89-1.52-1.86-2.78-2.88-3.76c-3.78-3.57-7.68-7.14-11.45-10.58l-2.35-2.14
		c-0.24-0.22-0.24-0.31-0.24-0.32c0-0.01,0.01-0.1,0.27-0.29C73,62.9,77.76,59.37,82.4,55.88c0.12-0.09,0.22-0.14,0.29-0.14
		c0.09,0,0.2,0.09,0.36,0.24c3.72,3.47,7.43,6.95,11.15,10.42l4.95,4.61c3.78,3.52,7.56,7.04,11.32,10.58
		c0.99,0.93,1.63,1.74,1.75,2.93c0.2,2.03-1.01,3.29-2.22,4.26c-3.31,2.63-6.69,5.28-9.96,7.84c-1.46,1.14-2.91,2.28-4.37,3.42
		l-8.17,6.42c-6.09,4.79-12.19,9.58-18.3,14.35C67.06,122.47,64.68,123.32,62.13,123.32C62.13,123.32,62.13,123.32,62.13,123.32z"/>
	<path class="st0" d="M57.74,0l0.39,11.39L16.64,45.97c0,0-5.19,3.57,0.9,9.32S42.3,78.01,42.3,78.01s4.72,4.23,0.38,7.58
		c-4.34,3.36-30.44,22.8-30.44,22.8l-11.97-2.15c0,0,9.25,9.97,15.54,13.41s10.27,1.97,16.23-2.85s35.76-28.3,35.76-28.3
		s7.68-5.09,0.54-12.11c-7.14-7.02-24.29-23.64-24.29-23.64s-2.46-2.25,0.9-5.45l27.18-24.14c0,0,4.69-3.57-1.49-11.3
		C64.48,4.13,60.01,1.4,57.74,0z"/>
</g>
</svg>
